<svg id="Camada_1" data-name="Camada 1" xmlns="http://www.w3.org/2000/svg" viewBox="0 0 595.28 223.62">
  <defs>
    <style>
      .cls-1 {
        fill: none;
      }

      .cls-1, .cls-2 {
        stroke: #fff;
        stroke-miterlimit: 10;
      }

      .cls-2, .cls-3, .cls-6 {
        fill: #fff;
      }

      .cls-3 {
        font-size: 21.16px;
      }

      .cls-3, .cls-6 {
        font-family: BellMT, Bell MT;
      }

      .cls-4 {
        letter-spacing: -0.02em;
      }

      .cls-5 {
        letter-spacing: 0em;
      }

      .cls-6 {
        font-size: 21.58px;
        letter-spacing: 0.37em;
      }

      .cls-7 {
        letter-spacing: 0.59em;
      }
    </style>
  </defs>
  <title>phylodiff_versões_Svg</title>
  <g>
    <polyline class="cls-1" points="235.92 142.96 237.94 158.51 230.22 158.54 228.78 166.35 238.41 166.88 240.84 194.22"/>
    <path class="cls-1" d="M228.32,95.58h0c-8.64,1.25-18.84,7-19.59,27.05l-16.8,2.79"/>
    <polyline class="cls-1" points="231.91 193.09 232.26 184.22 224.26 184.15 223.33 190.75"/>
    <polyline class="cls-1" points="228.78 166.35 220.13 164.84 216.14 173.3 228.74 175.92 228.45 184.19"/>
    <polyline class="cls-1" points="213.38 189.98 215.87 182.04 208.33 180.02 205.06 187.49"/>
    <polyline class="cls-1" points="212.62 180.95 216.14 173.3 205.17 169.52 196.57 183.45"/>
    <polyline class="cls-1" points="237.94 158.51 245.44 157.32 252.74 182.18 248.54 183.12 250.14 191.92"/>
    <path class="cls-1" d="M160.86,97.59l31.89,10.31s-5.12,23.24,5.7,33.49l-28.91,19.23"/>
    <path class="cls-1" d="M175.24,167.28l6.09-5.22S172,151.23,172,149.14l-7.3,3.56"/>
    <line class="cls-1" x1="193.3" y1="132.83" x2="161.38" y2="143.9"/>
    <line class="cls-1" x1="191.64" y1="123.5" x2="182.68" y2="124.6"/>
    <path class="cls-1" d="M174.23,119.12l8.38.07c-.59,2.55,1.19,10.49,1.19,10.49l-24.88,5.55"/>
    <polyline class="cls-1" points="157.69 125.73 174.03 124.3 174.3 113.37 166.37 112.7"/>
    <polyline class="cls-1" points="157.49 116.31 165.85 116.38 166.63 108.48 158.74 106.94"/>
    <polyline class="cls-1" points="235.13 94.96 239.93 59.9 234.8 59.44 235.62 41.92"/>
    <polyline class="cls-1" points="258.87 189.77 256.4 181.46 252.74 182.18"/>
    <polyline class="cls-1" points="244.67 43.02 242.93 51.19 246.99 52.36 250.94 53.5 253.33 45.2"/>
    <polyline class="cls-1" points="246.99 52.36 245.03 60.69 239.93 59.9"/>
    <polyline class="cls-1" points="226.89 41.89 230.5 95.19 230.51 95.35"/>
    <line class="cls-1" x1="225.34" y1="96.19" x2="215.91" y2="61.92"/>
    <path class="cls-1" d="M217.47,41.89,221,60.51s-7,1.25-9.75,3L208,55.26"/>
    <path class="cls-1" d="M209.47,45.78l2,7.78s-6.43,2.81-7,3.28-3.69-7.08-3.69-7.08"/>
    <polyline class="cls-1" points="217.85 99.88 197.26 71.73 201.39 68.19 192.96 53.86"/>
    <polyline class="cls-1" points="185.72 59.51 190.83 65.48 187.35 68.46 193.41 74.91 197.26 71.73"/>
    <polyline class="cls-1" points="178.84 65.94 184.24 71.12 187.35 68.46"/>
    <polyline class="cls-1" points="212.39 106.62 182.89 87.68 185.77 83.17 172.91 72.73"/>
    <polyline class="cls-1" points="163.71 88.68 171.38 92.36 172.97 88.3 180.44 92.25 182.89 87.68"/>
    <polyline class="cls-1" points="167.82 80.27 174.72 84.43 172.97 88.3"/>
    <path class="cls-2" d="M249.54,137.27a24,24,0,0,1-13.61,5.7l-.1-5.92a17.83,17.83,0,0,0-.54-35.41l-.1-6.67a24,24,0,0,1,14.35,42.3Z"/>
    <path class="cls-1" d="M235.19,95a21.67,21.67,0,0,0-4.69.22,18.47,18.47,0,0,0-2.18.39"/>
    <polyline class="cls-1" points="235.19 94.55 235.19 94.59 235.19 94.97"/>
  </g>
  <path class="cls-1" d="M240.23,194A77.42,77.42,0,0,0,303,149.14"/>
  <path class="cls-1" d="M226.58,42.29c2.19-.19,4.71-.41,6.95-.41.43,0,.85,0,1.29,0a76.19,76.19,0,0,1,70.43,50.45"/>
  <text class="cls-3" transform="translate(289.17 124.43)">PHY<tspan class="cls-4" x="44.09" y="0">L</tspan><tspan class="cls-5" x="56.57" y="0">O</tspan></text>
  <text class="cls-6" transform="translate(365.47 125.32)">dif<tspan class="cls-7" x="46.33" y="0">f</tspan></text>
</svg>
